<svg id="astro" xmlns="http://www.w3.org/2000/svg" width="360" height="360" viewBox="0 0 360 360">
  <defs>
    <style>
      .cls-1 {
        fill: #4c3aff;
      }

      .cls-1, .cls-2, .cls-3, .cls-4, .cls-6, .cls-7, .cls-8 {
        fill-rule: evenodd;
      }

      .cls-2 {
        fill: #190d91;
      }

      .cls-3 {
        fill: #bc8632;
      }

      .cls-4 {
        fill: #ffdba2;
      }

      .cls-5 {
        opacity: 0.52;
      }

      .cls-6 {
        fill: #452d07;
      }

      .cls-8 {
        fill: #0a0115;
      }
    </style>
  </defs>
  <path id="hat_top" data-name="hat top" class="cls-1" d="M131.631,161.15A310.349,310.349,0,0,1,150,116.548c1.613-3.135,12.183-8.314,8.471-10.231-1.278-.659-3.011-1.644-2.393-2.936C165.051,84.618,174.75,67.5,181.9,63.235,199.411,52.805,214.512,37.4,214.512,37.4s-17.4-16.572-8.152-27.2,60.861-25.3,58.424-36.718S263.425-51,263.425-51s28.938,7.981,28.533,19.039,14.411,13.436,10.87,27.2-8.22,40.688,1.359,47.6S352.81,96.3,355.818,113.553s45.767,44.465,59.783,48.957S257.242,133.511,131.631,161.15Z"/>
  <path id="シェイプ_3" data-name="シェイプ 3" class="cls-2" d="M307.213,45.6c-2.527,18.73-6.919,39.168-26.124,43.47-22.07,4.944-14.393,20-5.435,20.4,7.8,0.35,44.242,3.961,57.134,17.692-0.01-.03,28.476-0.027,28.464-0.013,2.683,0.018,1.359-1.36,1.359-1.36s-3.975-4.287-6.793-13.6C338.13,72.416,318.27,60,307.213,45.6Z"/>
  <path id="シェイプ_4" data-name="シェイプ 4" class="cls-2" d="M214.622,36.575c14.566,4.319,37.41,9.308,51.521,3.541-28.995,9.255-48.228,19.8-72.231,15.469C206.126,46.344,209.114,44.194,214.622,36.575Z"/>
  <path id="シェイプ_5" data-name="シェイプ 5" class="cls-2" d="M160.163,108.113c-2.55,1.445-3.162,1.928-10.834,9.391,31.959-16.617,92.357-27.07,92.357-27.07s-50.6,3.265-84.205,12.609a7.377,7.377,0,0,1-1.413.4,11.254,11.254,0,0,1,4.095,3.31C160.165,107.176,160.186,107.524,160.163,108.113Z"/>
  <path id="シェイプ_6" data-name="シェイプ 6" class="cls-2" d="M298.752,36.036s-35.571-2.164-33.968-20.4c2.014-22.915,29.674-38.416,35.327-34,6.492,5.316,1.346,16.182-1.359,28.559C297.135,16.773,298.752,36.036,298.752,36.036Z"/>
  <path id="hat_layer" data-name="hat layer" class="cls-1" d="M263.5,126.946c70.808-5.6,137.381-2.7,190.811,6.732-1.287,3.032-3.388,8.433-3.388,8.433s15.314-2.7,21.332-4.912q3.472,0.754,6.855,1.549c-3.137,4.332-7.806,14.243-7.806,14.243s17.127-5.892,24.914-9.8c49.83,14.271,80.713,35.793,80.794,61.977,0.07,22.534-45.536,54.965-118.043,80.337-0.88.308-10.763-6.038-10.763-6.038s4.059,8.341,2,9.024c-47.773,15.87-106.27,28.57-170.561,33.651-118.868,9.393-224.243-9.83-277.276-35.2-1.3-.625,8.212-5.479,6.971-6.11-1.012-.515-12.792,3.194-13.76,2.675-18.079-9.692-28.575-20.105-29.447-30.061C-38.813,196.95,94.815,140.276,263.5,126.946Z"/>
  <path id="hat" class="cls-2" d="M263.5,129.665c70.808-5.595,137.381-2.7,190.811,6.733-1.287,3.032-3.388,8.433-3.388,8.433s15.314-2.7,21.332-4.912q3.472,0.754,6.855,1.549c-3.137,4.332-7.806,14.243-7.806,14.243s17.127-5.892,24.914-9.8c49.83,14.271,80.713,35.793,80.794,61.976,0.07,22.535-45.536,54.965-118.043,80.338-0.88.308-10.763-6.038-10.763-6.038s4.059,8.341,2,9.024c-47.773,15.87-106.27,28.57-170.561,33.65-118.868,9.394-224.243-9.829-277.276-35.2-1.3-.625,8.212-5.479,6.971-6.11-1.012-.515-12.792,3.194-13.76,2.674-18.079-9.691-28.575-20.1-29.447-30.06C-38.813,199.67,94.815,143,263.5,129.665Z"/>
  <path id="cover" class="cls-3" d="M266.143,157.319c82.471,0,149.328,45.256,149.328,127.873,0,58.7-66.857,102.82-149.328,102.82s-149.328-44.12-149.328-102.82C116.815,201.833,183.671,157.319,266.143,157.319Z"/>
  <path id="face" class="cls-4" d="M266.143,169.31c67.535,0,122.284,37.06,122.284,104.715,0,48.069-54.749,77.517-122.284,77.517s-122.284-29.448-122.284-77.517C143.859,205.763,198.607,169.31,266.143,169.31Z"/>
  <g id="face_shadows" data-name="face shadows" class="cls-5">
    <path id="シェイプ_1" data-name="シェイプ 1" class="cls-6" d="M146.576,212.828c-22.54,11.98-28.193,38.654-29.891,70.717C123.031,250.325,130.017,233.134,146.576,212.828Z"/>
  </g>
  <path id="hair" class="cls-7" d="M315.754,176.085c26.288,5.61,41.459,19.98,57.253,42.708,7.534,13.56,16.8,14.464,10.409,41.667a4.118,4.118,0,0,0-1.041-2.083l-11.45-16.667-7.287,6.25c-2.111-21.709-16.511-29.613-28.106-41.667l-2.082,1.042c0.019,6.931-.906,15.857-4.163,19.792-16.592-11.4-35.37-24.562-61.416-26.042v7.292c3.442,8.675,12.926,15.69,22.9,17.708v2.083h-3.123c-23.535,6.653-67.578-9.6-80.153-20.833-11.584,5.634-14.994,13.527-17.7,28.125h-4.163c-4.878-3.823-5.491-8.79-9.369-13.542-18.56,14.287-22.7,41.118-31.228,65.626-3.159-3.9-2.495-23.769-1.041-32.292,4.857-25.922,19.69-46.6,26.023-51.042,3.969-3.867,6.823-5.637,9.369-8.334,45.023-16.027,59.517-20.415,113.463-20.833C305.389,174.753,307.994,174.894,315.754,176.085Z"/>
  <g id="eyes">
    <path id="楕円形_2" data-name="楕円形 2" class="cls-8" d="M206.36,250.906c5.252,0,8.116,7.164,9.511,17.679,1.382,10.424-4.259,19.04-9.511,19.04s-10.991-8.629-9.511-19.04C198.292,258.432,201.107,250.906,206.36,250.906Z"/>
    <path id="楕円形_2_のコピー" data-name="楕円形 2 のコピー" class="cls-8" d="M327.285,250.906c5.253,0,7.254,6.8,9.511,17.679,2.135,10.3-4.258,19.04-9.511,19.04s-11.068-8.641-9.511-19.04C319.308,258.341,322.032,250.906,327.285,250.906Z"/>
  </g>
  <path id="楕円形_3_のコピー" data-name="楕円形 3 のコピー" class="cls-2" d="M267.587,177.94c82.706-6.536,153.626,17.348,153.712,45.15,2.542-57.5-83.319-83.435-166.026-76.9s-139.4,31.244-133.482,100.567C119.363,219.062,184.879,184.476,267.587,177.94Z"/>
</svg>
